Jump_normalized_pl15_filtered_grf
version=1
nRows=15
nColumns=37
inDegrees=yes
endheader
time		1_ground_force_vx		1_ground_force_vy		1_ground_force_vz		1_ground_force_px		1_ground_force_py		1_ground_force_pz		1_ground_torque_x		1_ground_torque_y		1_ground_torque_z		2_ground_force_vx		2_ground_force_vy		2_ground_force_vz		2_ground_force_px		2_ground_force_py		2_ground_force_pz		2_ground_torque_x		2_ground_torque_y		2_ground_torque_z		3_ground_force_vx		3_ground_force_vy		3_ground_force_vz		3_ground_force_px		3_ground_force_py		3_ground_force_pz		3_ground_torque_x		3_ground_torque_y		3_ground_torque_z		4_ground_force_vx		4_ground_force_vy		4_ground_force_vz		4_ground_force_px		4_ground_force_py		4_ground_force_pz		4_ground_torque_x		4_ground_torque_y		4_ground_torque_z		
1.169500		-0.000000		0.000000		0.000000		0.107867		0.000000		0.205353		0.000000		0.000000		-0.000000		0.000000		0.000000		0.000000		-0.145997		0.000000		0.260919		0.000000		-0.000000		0.000000		4.593838		348.599168		240.111095		0.375462		1.308775		1.913895		-0.195809		-14.858763		-10.234545		-18.909686		356.507944		251.997011		-0.265822		1.308846		1.926144		-0.838266		15.803988		11.171021		
1.172732		-0.000000		0.000000		0.000000		0.107867		0.000000		0.205353		0.000000		0.000000		-0.000000		-0.000000		0.000000		0.000000		-0.145997		0.000000		0.260919		0.000000		-0.000000		0.000000		3.809161		346.590826		241.489644		0.375453		1.308764		1.913902		-0.162294		-14.766922		-10.288958		-18.953229		354.436194		252.847806		-0.265838		1.308840		1.926188		-0.842935		15.763355		11.245269		
1.175965		-0.000000		0.000000		0.000000		0.107867		0.000000		0.205353		0.000000		0.000000		-0.000000		-0.000000		0.000000		0.000000		-0.145997		0.000000		0.260919		0.000000		-0.000000		0.000000		3.112708		344.518056		242.844008		0.375447		1.308766		1.913925		-0.132604		-14.676762		-10.345361		-19.043312		352.432413		253.702719		-0.265856		1.308833		1.926243		-0.849618		15.723782		11.318954		
1.179197		0.000000		0.000000		0.000000		0.107867		0.000000		0.205353		0.000000		0.000000		-0.000000		-0.000000		-0.000000		-0.000000		-0.145997		0.000000		0.260919		-0.000000		0.000000		-0.000000		2.536893		342.358230		244.256960		0.375444		1.308778		1.913957		-0.108118		-14.590764		-10.409844		-19.110246		350.469470		254.522656		-0.265869		1.308828		1.926303		-0.855313		15.685872		11.391607		
1.182429		0.000000		-0.000000		-0.000000		0.107867		0.000000		0.205353		-0.000000		-0.000000		0.000000		-0.000000		-0.000000		-0.000000		-0.145997		0.000000		0.260919		-0.000000		0.000000		-0.000000		2.088067		340.094594		245.768162		0.375438		1.308795		1.913996		-0.089076		-14.508198		-10.484299		-19.095648		348.538703		255.267818		-0.265876		1.308825		1.926363		-0.857515		15.651570		11.463124		
1.185662		0.000000		-0.000000		-0.000000		0.107867		0.000000		0.205353		-0.000000		-0.000000		0.000000		-0.000000		-0.000000		-0.000000		-0.145997		0.000000		0.260919		-0.000000		0.000000		-0.000000		1.744191		337.716163		247.384683		0.375426		1.308810		1.914039		-0.074502		-14.425332		-10.566882		-18.975183		346.674630		255.909978		-0.265876		1.308826		1.926420		-0.855137		15.623272		11.532865		
1.188894		0.000000		-0.000000		-0.000000		0.107867		0.000000		0.205353		-0.000000		-0.000000		0.000000		0.000000		-0.000000		-0.000000		-0.145997		0.000000		0.260919		-0.000000		0.000000		-0.000000		1.473696		335.247657		249.059528		0.375407		1.308821		1.914085		-0.063029		-14.338488		-10.652237		-18.771444		344.950657		256.451260		-0.265869		1.308830		1.926471		-0.849051		15.602458		11.599544		
1.192126		0.000000		-0.000000		-0.000000		0.107867		0.000000		0.205353		-0.000000		-0.000000		0.000000		0.000000		-0.000000		-0.000000		-0.145997		0.000000		0.260919		-0.000000		0.000000		-0.000000		1.236929		332.726076		250.733884		0.375382		1.308825		1.914128		-0.052960		-14.246071		-10.735476		-18.527590		343.466597		256.915626		-0.265858		1.308835		1.926520		-0.840942		15.589492		11.661059		
1.195359		-0.000000		-0.000000		-0.000000		0.107867		0.000000		0.205353		-0.000000		-0.000000		0.000000		0.000000		0.000000		0.000000		-0.145997		0.000000		0.260919		0.000000		-0.000000		0.000000		0.991522		330.193316		252.353575		0.375359		1.308823		1.914167		-0.042491		-14.150205		-10.814437		-18.290033		342.312923		257.346990		-0.265847		1.308841		1.926567		-0.832636		15.583454		11.715466		
1.198591		-0.000000		0.000000		0.000000		0.107867		0.000000		0.205353		0.000000		0.000000		-0.000000		0.000000		0.000000		0.000000		-0.145997		0.000000		0.260919		0.000000		-0.000000		0.000000		0.704053		327.694094		253.879427		0.375347		1.308817		1.914201		-0.030200		-14.056400		-10.890129		-18.092374		341.547278		257.799756		-0.265835		1.308845		1.926613		-0.825455		15.582923		11.761985		
1.201823		-0.000000		0.000000		0.000000		0.107867		0.000000		0.205353		0.000000		0.000000		-0.000000		0.000000		0.000000		0.000000		-0.145997		0.000000		0.260919		0.000000		-0.000000		0.000000		0.360460		325.263193		255.307111		0.375352		1.308810		1.914229		-0.015483		-13.970886		-10.966094		-17.947450		341.190271		258.334505		-0.265824		1.308848		1.926663		-0.819920		15.587095		11.801874		
1.205056		-0.000000		0.000000		0.000000		0.107867		0.000000		0.205353		0.000000		0.000000		-0.000000		-0.000000		0.000000		0.000000		-0.145997		0.000000		0.260919		0.000000		-0.000000		0.000000		-0.011838		322.930920		256.647019		0.375374		1.308809		1.914257		0.000509		-13.898067		-11.045389		-17.848616		341.236757		259.016246		-0.265818		1.308850		1.926717		-0.815791		15.596599		11.838620		
1.208288		-0.000000		0.000000		0.000000		0.107867		0.000000		0.205353		0.000000		0.000000		-0.000000		-0.000000		0.000000		0.000000		-0.145997		0.000000		0.260919		0.000000		-0.000000		0.000000		-0.341630		320.727210		257.900059		0.375406		1.308820		1.914292		0.014741		-13.839254		-11.128289		-17.771554		341.696088		259.907672		-0.265815		1.308850		1.926777		-0.812094		15.614251		11.876822		
1.211520		0.000000		0.000000		0.000000		0.107867		0.000000		0.205353		0.000000		-0.000000		-0.000000		-0.000000		-0.000000		-0.000000		-0.145997		0.000000		0.260919		-0.000000		0.000000		-0.000000		-0.569925		318.656191		259.082258		0.375433		1.308850		1.914346		0.024667		-13.791654		-11.213254		-17.684780		342.605142		261.058016		-0.265814		1.308850		1.926839		-0.807564		15.644842		11.921045		
1.214753		0.000000		-0.000000		-0.000000		0.107867		0.000000		0.205353		-0.000000		-0.000000		0.000000		-0.000000		-0.000000		-0.000000		-0.145997		0.000000		0.260919		-0.000000		0.000000		-0.000000		-0.668843		316.734334		260.193561		0.375442		1.308904		1.914433		0.029039		-13.751684		-11.296850		-17.561557		344.043261		262.501226		-0.265813		1.308849		1.926904		-0.801134		15.694777		11.974942		
